<svg width="424" height="91" xmlns="http://www.w3.org/2000/svg" xmlns:xlink="http://www.w3.org/1999/xlink" overflow="hidden"><defs><clipPath id="clip0"><rect x="144" y="398" width="424" height="91"/></clipPath><clipPath id="clip1"><rect x="172" y="420" width="40" height="42"/></clipPath><clipPath id="clip2"><rect x="172" y="420" width="40" height="42"/></clipPath><clipPath id="clip3"><rect x="172" y="420" width="40" height="42"/></clipPath><clipPath id="clip4"><rect x="236" y="420" width="40" height="42"/></clipPath><clipPath id="clip5"><rect x="236" y="420" width="40" height="42"/></clipPath><clipPath id="clip6"><rect x="236" y="420" width="40" height="42"/></clipPath><clipPath id="clip7"><rect x="300" y="420" width="40" height="42"/></clipPath><clipPath id="clip8"><rect x="300" y="420" width="40" height="42"/></clipPath><clipPath id="clip9"><rect x="300" y="420" width="40" height="42"/></clipPath><clipPath id="clip10"><rect x="364" y="420" width="40" height="42"/></clipPath><clipPath id="clip11"><rect x="364" y="420" width="40" height="42"/></clipPath><clipPath id="clip12"><rect x="364" y="420" width="40" height="42"/></clipPath><clipPath id="clip13"><rect x="427" y="420" width="41" height="42"/></clipPath><clipPath id="clip14"><rect x="427" y="420" width="41" height="42"/></clipPath><clipPath id="clip15"><rect x="427" y="420" width="41" height="42"/></clipPath><clipPath id="clip16"><rect x="491" y="420" width="41" height="42"/></clipPath><clipPath id="clip17"><rect x="491" y="420" width="41" height="42"/></clipPath><clipPath id="clip18"><rect x="491" y="420" width="41" height="42"/></clipPath></defs><g clip-path="url(#clip0)" transform="translate(-144 -398)"><path d="M146.5 415C146.5 406.992 152.992 400.5 161 400.5L551 400.5C559.008 400.5 565.5 406.992 565.5 415L565.5 473C565.5 481.008 559.008 487.5 551 487.5L161 487.5C152.992 487.5 146.5 481.008 146.5 473Z" stroke="#44546A" stroke-width="2.66667" stroke-miterlimit="8" fill="#44546A" fill-rule="evenodd" fill-opacity="0.101961"/><g clip-path="url(#clip1)"><g clip-path="url(#clip2)"><g clip-path="url(#clip3)"><path d="M36.6667 15.8333 24.1667 15.8333 20 3.33333 15.8333 15.8333 3.33333 15.8333 12.9167 24.1667 9.16667 36.6667 20 29.1667 30.8333 36.6667 27.0833 24.1667Z" fill="#ED7D31" transform="matrix(1 0 0 1.05 172 420)"/></g></g></g><g clip-path="url(#clip4)"><g clip-path="url(#clip5)"><g clip-path="url(#clip6)"><path d="M36.6667 15.8333 24.1667 15.8333 20 3.33333 15.8333 15.8333 3.33333 15.8333 12.9167 24.1667 9.16667 36.6667 20 29.1667 30.8333 36.6667 27.0833 24.1667Z" fill="#FFC000" transform="matrix(1 0 0 1.05 236 420)"/></g></g></g><g clip-path="url(#clip7)"><g clip-path="url(#clip8)"><g clip-path="url(#clip9)"><path d="M36.6667 15.8333 24.1667 15.8333 20 3.33333 15.8333 15.8333 3.33333 15.8333 12.9167 24.1667 9.16667 36.6667 20 29.1667 30.8333 36.6667 27.0833 24.1667Z" fill="#70AD47" transform="matrix(1 0 0 1.05 300 420)"/></g></g></g><g clip-path="url(#clip10)"><g clip-path="url(#clip11)"><g clip-path="url(#clip12)"><path d="M36.6667 15.8333 24.1667 15.8333 20 3.33333 15.8333 15.8333 3.33333 15.8333 12.9167 24.1667 9.16667 36.6667 20 29.1667 30.8333 36.6667 27.0833 24.1667Z" fill="#4472C4" transform="matrix(1 0 0 1.05 364 420)"/></g></g></g><g clip-path="url(#clip13)"><g clip-path="url(#clip14)"><g clip-path="url(#clip15)"><path d="M37.5833 16.2292 24.7708 16.2292 20.5 3.41667 16.2292 16.2292 3.41667 16.2292 13.2396 24.7708 9.39583 37.5833 20.5 29.8958 31.6042 37.5833 27.7604 24.7708Z" fill="#5B9BD5" transform="matrix(1 0 0 1.02439 427 420)"/></g></g></g><g clip-path="url(#clip16)"><g clip-path="url(#clip17)"><g clip-path="url(#clip18)"><path d="M37.5833 16.2292 24.7708 16.2292 20.5 3.41667 16.2292 16.2292 3.41667 16.2292 13.2396 24.7708 9.39583 37.5833 20.5 29.8958 31.6042 37.5833 27.7604 24.7708Z" fill="#A5A5A5" transform="matrix(1 0 0 1.02439 491 420)"/></g></g></g></g></svg>