<svg width="281" height="57" xmlns="http://www.w3.org/2000/svg" xmlns:xlink="http://www.w3.org/1999/xlink" overflow="hidden"><defs><clipPath id="clip0"><rect x="109" y="120" width="281" height="57"/></clipPath><clipPath id="clip1"><rect x="127" y="134" width="27" height="26"/></clipPath><clipPath id="clip2"><rect x="127" y="134" width="27" height="26"/></clipPath><clipPath id="clip3"><rect x="127" y="134" width="27" height="26"/></clipPath><clipPath id="clip4"><rect x="170" y="134" width="27" height="26"/></clipPath><clipPath id="clip5"><rect x="170" y="134" width="27" height="26"/></clipPath><clipPath id="clip6"><rect x="170" y="134" width="27" height="26"/></clipPath><clipPath id="clip7"><rect x="212" y="134" width="27" height="26"/></clipPath><clipPath id="clip8"><rect x="212" y="134" width="27" height="26"/></clipPath><clipPath id="clip9"><rect x="212" y="134" width="27" height="26"/></clipPath><clipPath id="clip10"><rect x="255" y="134" width="27" height="26"/></clipPath><clipPath id="clip11"><rect x="255" y="134" width="27" height="26"/></clipPath><clipPath id="clip12"><rect x="255" y="134" width="27" height="26"/></clipPath><clipPath id="clip13"><rect x="297" y="134" width="27" height="26"/></clipPath><clipPath id="clip14"><rect x="297" y="134" width="27" height="26"/></clipPath><clipPath id="clip15"><rect x="297" y="134" width="27" height="26"/></clipPath><clipPath id="clip16"><rect x="340" y="134" width="27" height="26"/></clipPath><clipPath id="clip17"><rect x="340" y="134" width="27" height="26"/></clipPath><clipPath id="clip18"><rect x="340" y="134" width="27" height="26"/></clipPath></defs><g clip-path="url(#clip0)" transform="translate(-109 -120)"><path d="M110 130.167C110 125.104 114.104 121 119.167 121L379.833 121C384.896 121 389 125.104 389 130.167L389 166.833C389 171.896 384.896 176 379.833 176L119.167 176C114.104 176 110 171.896 110 166.833Z" fill="#44546A" fill-rule="evenodd" fill-opacity="0.101961"/><g clip-path="url(#clip1)"><g clip-path="url(#clip2)"><g clip-path="url(#clip3)"><path d="M23.8333 10.2917 15.7083 10.2917 13 2.16667 10.2917 10.2917 2.16667 10.2917 8.39583 15.7083 5.95833 23.8333 13 18.9583 20.0417 23.8333 17.6042 15.7083Z" fill="#ED7D31" transform="matrix(1.03846 0 0 1 127 134)"/></g></g></g><g clip-path="url(#clip4)"><g clip-path="url(#clip5)"><g clip-path="url(#clip6)"><path d="M23.8333 10.2917 15.7083 10.2917 13 2.16667 10.2917 10.2917 2.16667 10.2917 8.39583 15.7083 5.95833 23.8333 13 18.9583 20.0417 23.8333 17.6042 15.7083Z" fill="#FFC000" transform="matrix(1.03846 0 0 1 170 134)"/></g></g></g><g clip-path="url(#clip7)"><g clip-path="url(#clip8)"><g clip-path="url(#clip9)"><path d="M23.8333 10.2917 15.7083 10.2917 13 2.16667 10.2917 10.2917 2.16667 10.2917 8.39583 15.7083 5.95833 23.8333 13 18.9583 20.0417 23.8333 17.6042 15.7083Z" fill="#70AD47" transform="matrix(1.03846 0 0 1 212 134)"/></g></g></g><g clip-path="url(#clip10)"><g clip-path="url(#clip11)"><g clip-path="url(#clip12)"><path d="M23.8333 10.2917 15.7083 10.2917 13 2.16667 10.2917 10.2917 2.16667 10.2917 8.39583 15.7083 5.95833 23.8333 13 18.9583 20.0417 23.8333 17.6042 15.7083Z" fill="#4472C4" transform="matrix(1.03846 0 0 1 255 134)"/></g></g></g><g clip-path="url(#clip13)"><g clip-path="url(#clip14)"><g clip-path="url(#clip15)"><path d="M23.8333 10.2917 15.7083 10.2917 13 2.16667 10.2917 10.2917 2.16667 10.2917 8.39583 15.7083 5.95833 23.8333 13 18.9583 20.0417 23.8333 17.6042 15.7083Z" fill="#5B9BD5" transform="matrix(1.03846 0 0 1 297 134)"/></g></g></g><g clip-path="url(#clip16)"><g clip-path="url(#clip17)"><g clip-path="url(#clip18)"><path d="M23.8333 10.2917 15.7083 10.2917 13 2.16667 10.2917 10.2917 2.16667 10.2917 8.39583 15.7083 5.95833 23.8333 13 18.9583 20.0417 23.8333 17.6042 15.7083Z" fill="#A5A5A5" transform="matrix(1.03846 0 0 1 340 134)"/></g></g></g></g></svg>