<svg width="503" height="108" xmlns="http://www.w3.org/2000/svg" xmlns:xlink="http://www.w3.org/1999/xlink" overflow="hidden"><defs><clipPath id="clip0"><rect x="432" y="463" width="503" height="108"/></clipPath><clipPath id="clip1"><rect x="466" y="491" width="48" height="48"/></clipPath><clipPath id="clip2"><rect x="466" y="491" width="48" height="48"/></clipPath><clipPath id="clip3"><rect x="466" y="491" width="48" height="48"/></clipPath><clipPath id="clip4"><rect x="542" y="491" width="48" height="48"/></clipPath><clipPath id="clip5"><rect x="542" y="491" width="48" height="48"/></clipPath><clipPath id="clip6"><rect x="542" y="491" width="48" height="48"/></clipPath><clipPath id="clip7"><rect x="617" y="491" width="48" height="48"/></clipPath><clipPath id="clip8"><rect x="617" y="491" width="48" height="48"/></clipPath><clipPath id="clip9"><rect x="617" y="491" width="48" height="48"/></clipPath><clipPath id="clip10"><rect x="693" y="491" width="48" height="48"/></clipPath><clipPath id="clip11"><rect x="693" y="491" width="48" height="48"/></clipPath><clipPath id="clip12"><rect x="693" y="491" width="48" height="48"/></clipPath><clipPath id="clip13"><rect x="768" y="491" width="48" height="48"/></clipPath><clipPath id="clip14"><rect x="768" y="491" width="48" height="48"/></clipPath><clipPath id="clip15"><rect x="768" y="491" width="48" height="48"/></clipPath><clipPath id="clip16"><rect x="844" y="491" width="48" height="48"/></clipPath><clipPath id="clip17"><rect x="844" y="491" width="48" height="48"/></clipPath><clipPath id="clip18"><rect x="844" y="491" width="48" height="48"/></clipPath></defs><g clip-path="url(#clip0)" transform="translate(-432 -463)"><path d="M435.5 483.501C435.5 474.111 443.111 466.5 452.5 466.5L915.5 466.5C924.889 466.5 932.5 474.111 932.5 483.501L932.5 551.5C932.5 560.889 924.889 568.5 915.5 568.5L452.5 568.5C443.111 568.5 435.5 560.889 435.5 551.5Z" stroke="#44546A" stroke-width="5" stroke-miterlimit="8" fill="#44546A" fill-rule="evenodd" fill-opacity="0.101961"/><g clip-path="url(#clip1)"><g clip-path="url(#clip2)"><g clip-path="url(#clip3)"><path d="M510 510 495 510 490 495 485 510 470 510 481.5 520 477 535 490 526 503 535 498.5 520Z" fill="#ED7D31"/></g></g></g><g clip-path="url(#clip4)"><g clip-path="url(#clip5)"><g clip-path="url(#clip6)"><path d="M586 510 571 510 566 495 561 510 546 510 557.5 520 553 535 566 526 579 535 574.5 520Z" fill="#FFC000"/></g></g></g><g clip-path="url(#clip7)"><g clip-path="url(#clip8)"><g clip-path="url(#clip9)"><path d="M661 510 646 510 641 495 636 510 621 510 632.5 520 628 535 641 526 654 535 649.5 520Z" fill="#70AD47"/></g></g></g><g clip-path="url(#clip10)"><g clip-path="url(#clip11)"><g clip-path="url(#clip12)"><path d="M737 510 722 510 717 495 712 510 697 510 708.5 520 704 535 717 526 730 535 725.5 520Z" fill="#4472C4"/></g></g></g><g clip-path="url(#clip13)"><g clip-path="url(#clip14)"><g clip-path="url(#clip15)"><path d="M812 510 797 510 792 495 787 510 772 510 783.5 520 779 535 792 526 805 535 800.5 520Z" fill="#5B9BD5"/></g></g></g><g clip-path="url(#clip16)"><g clip-path="url(#clip17)"><g clip-path="url(#clip18)"><path d="M888 510 873 510 868 495 863 510 848 510 859.5 520 855 535 868 526 881 535 876.5 520Z" fill="#A5A5A5"/></g></g></g></g></svg>